<?xml version="1.0" encoding="utf-8"?>
<!-- Generator: Adobe Illustrator 20.1.0, SVG Export Plug-In . SVG Version: 6.00 Build 0)  -->
<svg version="1.1" id="Layer_1" xmlns="http://www.w3.org/2000/svg" xmlns:xlink="http://www.w3.org/1999/xlink" x="0px" y="0px"
	 viewBox="0 0 800 800" style="enable-background:new 0 0 800 800;" xml:space="preserve">
<style type="text/css">
	.st0{fill:#F6DF18;}
	.st1{clip-path:url(#SVGID_2_);}
	.st2{fill:#FFFFFF;}
	.st3{fill:#110F07;}
</style>
<rect x="-46" y="-40" class="st0" width="892" height="906"/>
<g>
	<g>
		<defs>
			<rect id="SVGID_1_" width="800" height="800"/>
		</defs>
		<use xlink:href="#SVGID_1_"  style="overflow:visible;fill:#F1EA35;"/>
		<clipPath id="SVGID_2_">
			<use xlink:href="#SVGID_1_"  style="overflow:visible;"/>
		</clipPath>
		<g class="st1">
			<rect class="st0" width="800" height="800"/>
			<g>
				<g>
					<polygon points="145.7,67.4 134.5,-8.5 141.5,68.1 					"/>
					
						<ellipse transform="matrix(0.9952 -9.751574e-02 9.751574e-02 0.9952 -6.0439 14.3416)" cx="143.7" cy="69" rx="7.5" ry="5.4"/>
					<polygon points="154.3,94.8 138.9,96.3 136.3,69.7 151.1,67.8 					"/>
					
						<ellipse transform="matrix(0.9952 -9.752719e-02 9.752719e-02 0.9952 -8.6046 14.752)" cx="146.6" cy="95.4" rx="7.7" ry="5.5"/>
					<path d="M149.8,95.9c0,0-0.5-2.2-3.1-1.9c-2.5,0.2-2.6,2.9-2.6,2.9l1.4,15.3l6.6-0.6L149.8,95.9z"/>
				</g>
				
					<ellipse transform="matrix(0.9952 -9.752201e-02 9.752201e-02 0.9952 -17.4082 16.0316)" cx="155.3" cy="186.1" rx="108.1" ry="78.4"/>
				
					<ellipse transform="matrix(0.9952 -9.751883e-02 9.751883e-02 0.9952 -18.3315 16.1255)" class="st2" cx="155.8" cy="195.6" rx="99.3" ry="77.8"/>
				
					<ellipse transform="matrix(0.9952 -9.752151e-02 9.752151e-02 0.9952 -18.4048 16.2274)" class="st2" cx="156.8" cy="196.4" rx="99.8" ry="69.4"/>
				
					<ellipse transform="matrix(0.9952 -9.752166e-02 9.752166e-02 0.9952 -19.4615 16.406)" cx="158.1" cy="207.3" rx="99.5" ry="72.1"/>
				
					<ellipse transform="matrix(0.9952 -9.752046e-02 9.752046e-02 0.9952 -19.3892 16.2847)" class="st2" cx="156.9" cy="206.5" rx="95.8" ry="63.7"/>
				
					<ellipse transform="matrix(0.9952 -9.752285e-02 9.752285e-02 0.9952 -20.331 16.4388)" class="st2" cx="158" cy="216.2" rx="95.1" ry="62.8"/>
				
					<ellipse transform="matrix(0.9952 -9.752159e-02 9.752159e-02 0.9952 -21.7497 16.6056)" cx="159" cy="230.8" rx="93" ry="61.3"/>
				
					<ellipse transform="matrix(0.9952 -9.751927e-02 9.751927e-02 0.9952 -25.9766 17.496)" class="st2" cx="166" cy="274.5" rx="61.3" ry="44.8"/>
				
					<ellipse transform="matrix(0.9952 -9.752171e-02 9.752171e-02 0.9952 -26.3407 17.4655)" cx="165.5" cy="278.2" rx="59.8" ry="39.6"/>
				<path d="M201.7,280.6C203,293.5,311.2,1057,305.3,1098c-1.1,7.7-97.1,4.5-103.1,2.2c-8.8-3.4-68.7-805.1-69.4-812.8
					c-1.3-12.9,13.2-24.8,32.2-26.6C184,258.8,200.5,267.7,201.7,280.6z"/>
			</g>
			<path class="st3" d="M478.3,663.4c21.8-12.6,41-23.7,60.8-35.2c5.8,7.1,10.5,13.6,15.9,19.4c21.6,23.5,48.5,30.3,78.9,22.9
				c14.8-3.6,26.8-12.1,29.7-28.2c3.1-16.7-4.2-29.8-18.8-37.6c-16.2-8.7-33.5-15.6-49.8-24.2c-19.4-10.2-39.9-19.2-56.9-32.7
				c-35.5-28.1-44.5-67.1-33.3-109.4c10.9-41.1,41-62.5,82-70.2c20.9-3.9,41.4-2.7,61.9,2.3c31.2,7.6,52.8,27.1,69.3,56.1
				c-19.3,12.4-38.1,24.5-57.7,37.1c-4.4-5.6-8-10.6-12.1-15.2c-12.1-13.8-27.7-18.5-45.4-15.4c-12.9,2.2-22.4,9.3-25.7,22.6
				c-3.5,14.1-0.7,27.2,11.6,35.5c11.4,7.7,24.2,13.3,36.5,19.7c24.5,12.8,50.4,23.6,73.2,38.9c34.7,23.2,45.4,58.9,40.9,98.9
				c-4.7,41.4-28.5,68.9-67.5,82.2c-47.1,16.1-93.5,13-137.8-10C509.5,708.3,492.1,688.2,478.3,663.4z"/>
			<path class="st3" d="M213.6,671.2c20.3-12.3,39.8-24.2,59.9-36.3c4.4,5.4,8.3,9.6,11.4,14.2c14,20.9,27.4,26.9,51.2,22.3
				c13.4-2.6,22.8-12.4,25-27.6c1.2-8.5,1.2-17.3,1.2-26c0.1-75.8,0-151.7,0-227.5c0-5.7,0-11.5,0-18.5c25.7,0,50.2,0,75.2,0
				c0.3,4.7,0.7,8.7,0.7,12.7c0,81.6,0.4,163.2-0.4,244.9c-0.2,15.9-2.7,32.6-7.9,47.5c-13.3,38.5-43.3,56.7-82.4,62.2
				C295.3,746.5,239.3,727.9,213.6,671.2z"/>
		</g>
	</g>
</g>
</svg>
